<svg xmlns="http://www.w3.org/2000/svg" width="73" height="74.558" viewBox="0 0 73 74.558"><path d="M4.294,42.258H32.206V74.53H11.594a7.473,7.473,0,0,1-7.3-7.219h0ZM61.835,74.105H41.224V42.258H69.135V67.311a7.137,7.137,0,0,1-7.3,6.794ZM0,26.971H31.776V37.587H0Zm41.224,0H73V37.587H41.224ZM61.406,7.863C58.829-1.479,49.812.092,47.235.092A11.793,11.793,0,0,0,36.5,10.283,11.4,11.4,0,0,0,26.194.092c-2.576,0-11.594-1.7-14.171,7.643a10.938,10.938,0,0,0,4.724,13.588H56.682A10.938,10.938,0,0,0,61.406,7.863ZM30.918,15.506H19.753s-5.153-6.921.859-9.342S31.347,12.109,30.918,15.506Zm22.759,0H42.512c-.429-3.4,4.294-11.465,10.306-9.342S53.676,15.506,53.676,15.506Z" transform="translate(0 0.028)" fill="#010101"/></svg>