<svg xmlns="http://www.w3.org/2000/svg" width="80" height="70.005" viewBox="0 0 80 70.005"><path d="M73.419,6.47a22.244,22.244,0,0,0-31.431,0L39.919,8.539,37.851,6.47A22.225,22.225,0,1,0,6.42,37.9L37.471,68.952a3.481,3.481,0,0,0,2.47,1.013,3.4,3.4,0,0,0,2.428-1.013L73.419,37.9A22.27,22.27,0,0,0,73.419,6.47ZM68.564,33.046,39.919,61.691,11.275,33.046a15.352,15.352,0,1,1,21.7-21.721l4.527,4.5a3.534,3.534,0,0,0,4.855,0l4.5-4.5A15.359,15.359,0,1,1,68.575,33.046Z" transform="translate(0.09 0.04)" fill="#010101"/></svg>