<svg xmlns="http://www.w3.org/2000/svg" width="49.563" height="66" viewBox="0 0 49.563 66"><defs><style>.a{fill:#010101;}</style></defs><path class="a" d="M23.8,0A21.122,21.122,0,0,0,9.452,6.4a17.441,17.441,0,0,0-4.81,9.662c0,2.593,0,5.144,0,7.738V29.57H0V66H49.563V29.821H45.046V15.894a17.316,17.316,0,0,0-4.977-9.578A20.034,20.034,0,0,0,34.38,2.133,21.707,21.707,0,0,0,26.015,0Zm2.384,6.274A14.555,14.555,0,0,1,34,9.369a16.4,16.4,0,0,1,1.924,1.882A11.335,11.335,0,0,1,38.312,16.9V29.445H11.251V23.506a27.814,27.814,0,0,1,.335-7.9,12.548,12.548,0,0,1,9.327-8.867,17.441,17.441,0,0,1,2.51-.418,17.9,17.9,0,0,1,2.593,0Z"/></svg>